<svg xmlns="http://www.w3.org/2000/svg" width="150" height="61" viewBox="0 0 150 61" version="1.1">
	<path d="M 43.500 1.441 C 41.300 2.253, 37.905 4.624, 35.956 6.709 C 32.758 10.130, 31.989 10.469, 28.069 10.186 C 25.679 10.013, 22.468 10.392, 20.932 11.028 C 18.235 12.145, 15 17.208, 15 20.312 C 15 21.142, 12.978 22.800, 10.507 23.997 C -2.141 30.119, -3.488 47.563, 8.042 55.915 C 14.651 60.703, 24 61.390, 24 57.088 C 24 54.937, 22.126 54, 17.823 54 C 10.691 54, 4.064 45.804, 5.407 38.647 C 6.312 33.822, 10.450 29.274, 15.500 27.554 C 19.101 26.328, 19.555 25.793, 20.056 22.183 C 20.940 15.800, 22.437 14.678, 29.066 15.428 C 34.668 16.062, 34.733 16.039, 37.490 12.425 C 42.742 5.538, 51.827 3.286, 59.456 6.979 C 64.025 9.190, 66.707 13.039, 68.455 19.890 C 69.344 23.376, 70.102 24.500, 71.565 24.500 C 73.230 24.500, 73.477 23.836, 73.337 19.736 C 73.129 13.660, 69.230 6.843, 63.975 3.365 C 59.072 0.120, 49.513 -0.778, 43.500 1.441 M 29 32 C 29 32.550, 29.450 33, 30 33 C 30.550 33, 31 32.550, 31 32 C 31 31.450, 30.550 31, 30 31 C 29.450 31, 29 31.450, 29 32 M 36 33 C 33.131 35.869, 33.258 42.367, 36.223 44.443 C 39.086 46.449, 43.392 46.437, 45.067 44.419 C 46.236 43.010, 45.977 42.914, 42.679 43.532 C 37.995 44.411, 36 42.865, 36 38.356 C 36 34.089, 39.477 31.985, 43.500 33.818 C 45.500 34.730, 46 34.685, 46 33.595 C 46 32.241, 43.092 31.040, 39.750 31.014 C 38.788 31.006, 37.100 31.900, 36 33 M 48.687 38.196 C 48.358 42.122, 48.320 45.709, 48.603 46.167 C 49.295 47.287, 56.737 47.234, 57.435 46.105 C 58.108 45.016, 55.694 44, 52.434 44 C 50.100 44, 50.048 43.831, 50.643 38.138 C 51.006 34.671, 50.853 32.027, 50.271 31.667 C 49.677 31.300, 49.047 33.897, 48.687 38.196 M 60.655 33.829 C 58.332 36.395, 58.522 42.522, 61 45 C 65.348 49.348, 72 46.022, 72 39.500 C 72 33.097, 64.645 29.420, 60.655 33.829 M 75 37.929 C 75 44.645, 76.524 47, 80.871 47 C 85.007 47, 86 45.277, 86 38.100 C 86 30.211, 84.258 30.926, 83.807 39 C 83.532 43.931, 83.253 44.535, 81.113 44.837 C 77.956 45.284, 77.034 43.577, 77.015 37.250 C 77.007 34.362, 76.550 32, 76 32 C 75.446 32, 75 34.643, 75 37.929 M 90.667 32.667 C 90.300 33.033, 90 36.633, 90 40.667 L 90 48 93.545 48 C 99.896 48, 103.933 41.479, 100.988 35.978 C 100.432 34.938, 98.294 33.620, 96.238 33.049 C 91.811 31.820, 91.533 31.801, 90.667 32.667 M 106.750 34.055 C 104.720 35.267, 104.432 38.514, 106.250 39.691 C 106.938 40.136, 108.850 40.950, 110.500 41.500 C 115.177 43.059, 114.392 45.518, 109.250 45.414 C 104.584 45.319, 103.554 46.599, 107.500 47.589 C 111.132 48.501, 114.769 47.303, 115.516 44.950 C 116.390 42.195, 114.520 40.188, 110.349 39.406 C 105.425 38.482, 106.131 35.500, 111.274 35.500 C 113.324 35.500, 114.854 35.050, 114.674 34.500 C 114.215 33.099, 108.856 32.798, 106.750 34.055 M 62.054 35.435 C 60.420 37.404, 61.131 43.067, 63.172 44.345 C 64.355 45.085, 65.599 45.048, 67.422 44.217 C 69.439 43.298, 70 42.321, 70 39.721 C 70 37.895, 69.460 35.860, 68.800 35.200 C 67.162 33.562, 63.503 33.689, 62.054 35.435 M 29 40.500 C 29 43.525, 29.450 46, 30 46 C 30.550 46, 31 43.525, 31 40.500 C 31 37.475, 30.550 35, 30 35 C 29.450 35, 29 37.475, 29 40.500 M 92 40.031 C 92 45.838, 93.590 47.154, 97.508 44.587 C 102.379 41.395, 100.083 35, 94.066 35 C 92.252 35, 92 35.613, 92 40.031" stroke="none" fill="black" fill-rule="evenodd"/>
</svg>